<?xml version="1.0" encoding="UTF-8"?>
<svg id="Réteg_2" data-name="Réteg 2" xmlns="http://www.w3.org/2000/svg" viewBox="0 0 78.19 87.4">
  <defs>
    <style>
      .cls-1 {
        fill: #060606;
      }

      .cls-2 {
        fill: #010000;
      }

      .cls-3 {
        fill: #0a0a0a;
      }
    </style>
  </defs>
  <g id="Réteg_1" data-name="Réteg 1">
    <g>
      <polygon class="cls-2" points="11.86 38.02 11.83 71.45 .09 71.47 .09 30.53 38.31 12.44 38.34 25.46 11.86 38.02"/>
      <polygon class="cls-2" points="78.19 71.34 66.44 71.52 66.45 17.82 78.19 22.58 78.19 71.34"/>
      <path class="cls-1" d="M55.93,87.16l-.46-5.69-4.6,5.46c-.59.7-3.03.6-3.63-.13l-4.65-5.65-.29,6.19-2.89-.13-.02-9.91,3.59-.19,6.24,7.6,5.83-7.36,3.81-.16v10.11s-2.91-.12-2.91-.12Z"/>
      <path class="cls-1" d="M77.44,83.11l-10.22.06c-.21,0-.76.55-.86.74-.15.29.75.98,1.16.98h10.57s-.12,2.37-.12,2.37l-14.93.06.04-10.19h14.89s.09,2.36.09,2.36l-10.42.04c-.3,0-1.07.39-1.24.48-.26.15.33,1.16.73,1.16l10.31.05c.29.14.28,1.55-.01,1.87Z"/>
      <polygon class="cls-2" points="33.79 85.73 20.53 85.81 20.45 78.7 33.69 78.68 33.79 85.73"/>
      <path class="cls-3" d="M14.93,86.99c-.63.16-2.34.27-3.01.23l-.12-3.75-8.68.03-.21,3.8-2.89-.06-.02-9.98,2.86-.08.34,3.6,8.57-.02.16-3.58,2.96.08.05,9.74Z"/>
      <path class="cls-2" d="M20.38,71.52l-.02-29.39,26.87-12.8.04-29.32,11.6,5.48v65.98s-38.49.06-38.49.06ZM47.29,59.63l-.12-17.18-15.19,7.17v10.05s15.31-.04,15.31-.04Z"/>
    </g>
  </g>
</svg>